<?xml version="1.0" encoding="utf-8"?>
<!-- Generator: Adobe Illustrator 26.0.3, SVG Export Plug-In . SVG Version: 6.00 Build 0)  -->
<svg version="1.1" id="Layer_1" xmlns="http://www.w3.org/2000/svg" xmlns:xlink="http://www.w3.org/1999/xlink" x="0px" y="0px"
	 viewBox="0 0 739 190" style="enable-background:new 0 0 739 190;" xml:space="preserve">
<style type="text/css">
	.st0{fill:#005470;}
	.st1{fill:#FFFFFF;}
	.st2{fill:#0091B3;}
	.st3{fill:none;}
</style>
<g>
	<path class="st0" d="M212.25,62.65h20.82l25.8,50.88l25.56-50.88h20.7v82.85h-16.8V89.52l-23.55,47.58h-12.06l-23.67-47.58v55.98
		h-16.8L212.25,62.65L212.25,62.65z"/>
	<path class="st0" d="M338.81,56.38c1.86,1.89,2.79,4.35,2.79,7.35s-0.93,5.43-2.79,7.35c-1.86,1.89-4.23,2.85-7.17,2.85
		c-2.85,0-5.19-0.96-7.05-2.91s-2.79-4.35-2.79-7.29c0-3,0.93-5.43,2.79-7.35s4.2-2.85,7.05-2.85
		C334.58,53.53,336.98,54.46,338.81,56.38z M322.67,81.82h18.24v63.69h-18.24V81.82z"/>
	<path class="st0" d="M384.8,84.31c3.54-2.04,7.68-3.12,12.42-3.21v17.16c-0.63-0.09-1.59-0.12-2.85-0.12
		c-5.61,0-10.05,1.53-13.32,4.56c-3.27,3.03-4.92,7.08-4.92,12.12v30.66h-18.24V81.79h18.24v11.49
		C378.38,89.35,381.26,86.35,384.8,84.31z"/>
	<path class="st0" d="M441.62,145.47V138c-2.13,2.67-4.89,4.74-8.28,6.15s-7.29,2.13-11.73,2.13c-6.72,0-12.03-1.83-15.99-5.49
		s-5.91-8.46-5.91-14.37c0-6,2.1-10.68,6.33-14.04c4.23-3.36,10.2-5.07,17.94-5.16h17.52v-1.17c0-3.39-1.11-6.03-3.36-7.86
		s-5.55-2.79-9.87-2.79c-5.91,0-12.24,1.86-18.93,5.55l-5.67-12.54c5.04-2.52,9.78-4.38,14.19-5.55c4.41-1.17,9.27-1.77,14.55-1.77
		c8.52,0,15.12,2.01,19.83,6.03c4.68,4.02,7.08,9.63,7.17,16.8l0.12,41.55L441.62,145.47L441.62,145.47z M436.52,130.56
		c2.76-1.83,4.41-4.11,4.98-6.87v-5.67h-14.31c-3.54,0-6.18,0.57-7.86,1.71c-1.71,1.14-2.55,2.97-2.55,5.49
		c0,2.46,0.9,4.41,2.67,5.85c1.77,1.47,4.2,2.19,7.29,2.19C430.49,133.29,433.76,132.39,436.52,130.56z"/>
	<path class="st0" d="M503.02,96.73c-4.59,0-8.31,1.56-11.19,4.68s-4.32,7.23-4.32,12.36s1.41,9.3,4.26,12.48
		c2.85,3.18,6.48,4.8,10.89,4.8c6.63,0,11.55-2.49,14.79-7.47l12.54,8.52c-2.67,4.5-6.45,7.98-11.31,10.41
		c-4.86,2.46-10.5,3.66-16.98,3.66c-6.39,0-12.03-1.35-16.92-4.02c-4.89-2.67-8.7-6.48-11.43-11.37
		c-2.73-4.89-4.08-10.53-4.08-16.92c0-6.48,1.35-12.18,4.08-17.1c2.73-4.92,6.54-8.76,11.49-11.49c4.92-2.73,10.62-4.08,17.1-4.08
		c6.06,0,11.49,1.17,16.2,3.48c4.74,2.34,8.52,5.61,11.37,9.87l-12.3,8.88C513.61,98.97,508.87,96.73,503.02,96.73z"/>
	<path class="st0" d="M585.46,85.24c5.16,2.67,9.18,6.48,12,11.37c2.85,4.89,4.26,10.56,4.26,17.04c0,6.39-1.41,12.06-4.26,16.98
		c-2.85,4.92-6.84,8.76-12,11.49c-5.16,2.73-11.1,4.08-17.82,4.08c-6.78,0-12.75-1.35-17.94-4.08c-5.16-2.73-9.18-6.54-12-11.49
		c-2.85-4.92-4.26-10.59-4.26-16.98c0-6.48,1.41-12.15,4.26-17.04c2.85-4.89,6.84-8.67,12-11.37c5.16-2.67,11.13-4.02,17.94-4.02
		C574.36,81.22,580.3,82.57,585.46,85.24z M556.12,101.22c-2.97,3.24-4.44,7.47-4.44,12.66s1.47,9.42,4.44,12.66
		c2.97,3.24,6.81,4.86,11.55,4.86c4.65,0,8.46-1.62,11.43-4.86s4.44-7.47,4.44-12.66s-1.47-9.42-4.44-12.66
		c-2.97-3.24-6.75-4.86-11.43-4.86C562.93,96.37,559.09,97.98,556.12,101.22z"/>
	<path class="st0" d="M714.36,87.67c4.14,4.38,6.21,10.32,6.21,17.82v39.99h-18.12V110.8c0-4.11-1.11-7.29-3.3-9.6
		c-2.22-2.28-5.22-3.42-9-3.42c-4.35,0.09-7.77,1.62-10.29,4.62c-2.52,3-3.78,6.87-3.78,11.61v31.5h-18.12v-34.68
		c0-4.02-1.08-7.2-3.24-9.54s-5.16-3.48-8.94-3.48c-4.35,0.09-7.8,1.62-10.35,4.62c-2.58,3-3.84,6.87-3.84,11.61v31.5h-18.24V81.85
		h18.24v11.01c4.41-7.65,11.61-11.55,21.54-11.73c5.37,0,9.9,1.29,13.62,3.84c3.72,2.58,6.36,6.18,7.92,10.83
		c2.04-4.8,5.04-8.43,8.94-10.89c3.9-2.43,8.58-3.72,14.01-3.78C704.64,81.1,710.22,83.29,714.36,87.67z"/>
</g>
<g>
	<path class="st0" d="M60.4,48.97l33.09,69.18l34.5-69.18l38.64,76.73c3.39-8.76,5.28-18.27,5.28-28.26
		c0-43.32-35.13-78.44-78.44-78.44S15.03,54.13,15.03,97.44c0,10.65,2.16,20.79,6.03,30.06L60.4,48.97z"/>
	<polygon class="st1" points="93.82,140.16 93.55,139.62 93.28,140.16 	"/>
	<polygon class="st2" points="78.52,112.95 40,112.95 33.88,124.98 84.64,124.98 	"/>
	<polygon class="st2" points="70.36,96.94 48.16,96.94 42.04,108.96 76.48,108.96 	"/>
	<polygon class="st2" points="59.26,75.13 50.2,92.95 68.32,92.95 	"/>
	<path class="st2" d="M44.95,156.21h97.01c4.23-3.33,8.07-7.08,11.52-11.19H33.43C36.88,149.13,40.72,152.88,44.95,156.21z"/>
	<path class="st2" d="M100.42,129l-6.12,12.03h62.37c0.21-0.3,0.45-0.57,0.66-0.87c0.72-0.99,1.38-2.04,2.07-3.09l-4.11-8.1h-54.87
		L100.42,129L100.42,129z"/>
	<polygon class="st2" points="138.93,96.94 116.74,96.94 110.62,108.96 145.05,108.96 	"/>
	<polygon class="st2" points="147.06,112.95 108.58,112.95 102.46,124.98 153.18,124.98 	"/>
	<path class="st2" d="M86.68,129H31.84l-4.2,8.25c0.63,0.99,1.29,1.98,1.95,2.94c0.21,0.3,0.45,0.57,0.66,0.87h62.52L86.68,129z"/>
	<polygon class="st2" points="127.84,75.13 118.75,92.95 136.9,92.95 	"/>
	<path class="st2" d="M93.46,173.04c15.87,0,30.6-4.74,42.93-12.84H50.54C62.86,168.3,77.59,173.04,93.46,173.04z"/>
	<polygon class="st2" points="40,112.95 38.56,112.95 32.44,124.98 33.88,124.98 	"/>
	<polygon class="st2" points="145.05,108.96 146.49,108.96 140.37,96.94 138.93,96.94 	"/>
	<polygon class="st2" points="153.18,124.98 154.65,124.98 148.53,112.95 147.06,112.95 	"/>
	<polygon class="st2" points="48.16,96.94 46.72,96.94 40.6,108.96 42.04,108.96 	"/>
	<polygon class="st2" points="98.95,129 93.55,139.62 93.82,140.16 93.28,140.16 93.55,139.62 88.12,129 86.68,129 92.8,141 
		94.3,141 100.42,129 	"/>
	<polygon class="st2" points="127.84,75.13 136.9,92.95 138.33,92.95 127.84,72.28 117.31,92.95 118.75,92.95 	"/>
	<path class="st2" d="M159.36,137.07c0.27-0.42,0.57-0.81,0.84-1.23l-3.48-6.84h-1.47L159.36,137.07z"/>
	<path class="st2" d="M30.4,129l-3.57,6.99c0.27,0.42,0.57,0.81,0.84,1.23l4.2-8.25H30.4V129z"/>
	<polygon class="st2" points="84.64,124.98 86.08,124.98 79.96,112.95 78.52,112.95 	"/>
	<polygon class="st2" points="59.26,75.13 68.32,92.95 69.79,92.95 59.26,72.28 48.73,92.95 50.2,92.95 	"/>
	<polygon class="st2" points="108.58,112.95 107.11,112.95 100.99,124.98 102.46,124.98 	"/>
	<polygon class="st2" points="76.48,108.96 77.95,108.96 71.83,96.94 70.36,96.94 	"/>
	<polygon class="st2" points="116.74,96.94 115.27,96.94 109.15,108.96 110.62,108.96 	"/>
	<path class="st1" d="M50.53,160.2h85.85c1.92-1.26,3.78-2.58,5.58-3.99H44.95C46.75,157.62,48.61,158.94,50.53,160.2z"/>
	<path class="st1" d="M94.3,141l-0.75,1.47l0.27,0.54h-0.54l0.27-0.54L92.8,141H30.28c1.02,1.38,2.07,2.7,3.15,3.99h120.05
		c1.08-1.29,2.16-2.64,3.15-3.99H94.3z"/>
	<polygon class="st1" points="93.55,142.47 94.3,141 92.8,141 	"/>
	<polygon class="st1" points="93.82,143.01 93.55,142.47 93.28,143.01 	"/>
	<line class="st3" x1="100.42" y1="129" x2="155.22" y2="129"/>
	<line class="st3" x1="153.18" y1="124.98" x2="102.46" y2="124.98"/>
	<line class="st3" x1="98.95" y1="129" x2="100.42" y2="129"/>
	<line class="st3" x1="102.46" y1="124.98" x2="100.99" y2="124.98"/>
	<polygon class="st1" points="86.08,124.98 84.64,124.98 33.88,124.98 32.44,124.98 30.4,129 31.84,129 86.68,129 88.12,129 	"/>
	<polygon class="st1" points="77.95,108.96 76.48,108.96 42.04,108.96 40.6,108.96 38.56,112.95 40,112.95 78.52,112.95 
		79.96,112.95 	"/>
	<line class="st3" x1="108.58" y1="112.95" x2="147.06" y2="112.95"/>
	<line class="st3" x1="145.05" y1="108.96" x2="110.62" y2="108.96"/>
	<line class="st3" x1="146.49" y1="108.96" x2="145.05" y2="108.96"/>
	<line class="st3" x1="147.06" y1="112.95" x2="148.53" y2="112.95"/>
	<line class="st3" x1="107.11" y1="112.95" x2="108.58" y2="112.95"/>
	<line class="st3" x1="110.62" y1="108.96" x2="109.15" y2="108.96"/>
	<polygon class="st1" points="69.79,92.95 68.32,92.95 50.2,92.95 48.73,92.95 46.72,96.94 48.16,96.94 70.36,96.94 71.83,96.94 	
		"/>
	<line class="st3" x1="116.74" y1="96.94" x2="138.93" y2="96.94"/>
	<line class="st3" x1="136.9" y1="92.95" x2="118.75" y2="92.95"/>
	<line class="st3" x1="138.33" y1="92.95" x2="136.9" y2="92.95"/>
	<line class="st3" x1="138.93" y1="96.94" x2="140.37" y2="96.94"/>
	<line class="st3" x1="115.27" y1="96.94" x2="116.74" y2="96.94"/>
	<line class="st3" x1="118.75" y1="92.95" x2="117.31" y2="92.95"/>
</g>
</svg>
